<svg xmlns="http://www.w3.org/2000/svg" xmlns:xlink="http://www.w3.org/1999/xlink" version="1.1" width="64" height="64" viewBox="0 0 64 64" xml:space="preserve">
<desc>Created with Fabric.js 3.5.0</desc>
<defs>
</defs>
<rect x="0" y="0" width="100%" height="100%" fill="#ffffff"/>
<g transform="matrix(0.1998 0 0 0.1998 31.9998 31.9997)" id="448581">
<g style="" vector-effect="non-scaling-stroke">
		<g transform="matrix(1 0 0 1 -0.209 -0.1061)" id="626609">
<path style="stroke: none; stroke-width: 1; stroke-dasharray: none; stroke-linecap: butt; stroke-dashoffset: 0; stroke-linejoin: miter; stroke-miterlimit: 4; is-custom-font: none; font-file-url: none; fill: rgb(92,141,188); fill-rule: nonzero; opacity: 1;" transform=" translate(-127.791, -143.8939)" d="M 255.569 84.72 C 255.567 79.89 254.534 75.622 252.445 71.959 C 250.393 68.357 247.32 65.338 243.198 62.951 C 209.173 43.332 175.115 23.773 141.101 4.134 C 131.931 -1.16 123.04 -0.967 113.938 4.403 C 100.395 12.39 32.59 51.237 12.385 62.94 C 4.064 67.757 0.015 75.129 0.013 84.711 C 0 124.166 0.013 163.62 0 203.076 C 0.002 207.8 0.991 211.985 2.988 215.593 C 5.041 219.304 8.157 222.406 12.374 224.847 C 32.58 236.55 100.394 275.394 113.934 283.383 C 123.04 288.756 131.931 288.948 141.104 283.652 C 175.119 264.012 209.179 244.454 243.209 224.835 C 247.426 222.395 250.542 219.291 252.595 215.583 C 254.589 211.975 255.58 207.79 255.582 203.065 C 255.582 203.065 255.582 124.176 255.569 84.72" stroke-linecap="round"/>
</g>
		<g transform="matrix(1 0 0 1 -0.2085 71.5146)" id="905139">
<path style="stroke: none; stroke-width: 1; stroke-dasharray: none; stroke-linecap: butt; stroke-dashoffset: 0; stroke-linejoin: miter; stroke-miterlimit: 4; is-custom-font: none; font-file-url: none; fill: rgb(26,70,116); fill-rule: nonzero; opacity: 1;" transform=" translate(-127.7915, -215.5146)" d="M 128.182 143.509 L 2.988 215.593 C 5.041 219.304 8.157 222.406 12.374 224.847 C 32.58 236.55 100.394 275.394 113.934 283.383 C 123.04 288.756 131.931 288.948 141.104 283.652 C 175.119 264.012 209.179 244.454 243.209 224.835 C 247.426 222.395 250.542 219.291 252.595 215.583 L 128.182 143.509" stroke-linecap="round"/>
</g>
		<g transform="matrix(1 0 0 1 -0.14 20.833)" id="739555">
<path style="stroke: none; stroke-width: 1; stroke-dasharray: none; stroke-linecap: butt; stroke-dashoffset: 0; stroke-linejoin: miter; stroke-miterlimit: 4; is-custom-font: none; font-file-url: none; fill: rgb(26,70,116); fill-rule: nonzero; opacity: 1;" transform=" translate(-127.86, -164.833)" d="M 91.101 164.861 C 98.386 177.579 112.081 186.157 127.791 186.157 C 143.598 186.157 157.371 177.47 164.619 164.616 L 128.182 143.509 L 91.101 164.861" stroke-linecap="round"/>
</g>
		<g transform="matrix(1 0 0 1 63.882 -0.229)" id="157196">
<path style="stroke: none; stroke-width: 1; stroke-dasharray: none; stroke-linecap: butt; stroke-dashoffset: 0; stroke-linejoin: miter; stroke-miterlimit: 4; is-custom-font: none; font-file-url: none; fill: rgb(27,89,142); fill-rule: nonzero; opacity: 1;" transform=" translate(-191.882, -143.771)" d="M 255.569 84.72 C 255.567 79.89 254.534 75.622 252.445 71.959 L 128.182 143.509 L 252.595 215.583 C 254.589 211.975 255.58 207.79 255.582 203.065 C 255.582 203.065 255.582 124.176 255.569 84.72" stroke-linecap="round"/>
</g>
		<g transform="matrix(1 0 0 1 106.1445 -0.1985)" id="984975">
<path style="stroke: none; stroke-width: 1; stroke-dasharray: none; stroke-linecap: butt; stroke-dashoffset: 0; stroke-linejoin: miter; stroke-miterlimit: 4; is-custom-font: none; font-file-url: none; fill: rgb(255,255,255); fill-rule: nonzero; opacity: 1;" transform=" translate(-234.1445, -143.8015)" d="M 248.728 148.661 L 239.006 148.661 L 239.006 158.385 L 229.282 158.385 L 229.282 148.661 L 219.561 148.661 L 219.561 138.94 L 229.282 138.94 L 229.282 129.218 L 239.006 129.218 L 239.006 138.94 L 248.728 138.94 L 248.728 148.661" stroke-linecap="round"/>
</g>
		<g transform="matrix(1 0 0 1 70.6705 -0.1985)" id="493338">
<path style="stroke: none; stroke-width: 1; stroke-dasharray: none; stroke-linecap: butt; stroke-dashoffset: 0; stroke-linejoin: miter; stroke-miterlimit: 4; is-custom-font: none; font-file-url: none; fill: rgb(255,255,255); fill-rule: nonzero; opacity: 1;" transform=" translate(-198.6705, -143.8015)" d="M 213.253 148.661 L 203.532 148.661 L 203.532 158.385 L 193.81 158.385 L 193.81 148.661 L 184.088 148.661 L 184.088 138.94 L 193.81 138.94 L 193.81 129.218 L 203.532 129.218 L 203.532 138.94 L 213.253 138.94 L 213.253 148.661" stroke-linecap="round"/>
</g>
		<g transform="matrix(1 0 0 1 -5.7895 -0.1065)" id="390767">
<path style="stroke: none; stroke-width: 1; stroke-dasharray: none; stroke-linecap: butt; stroke-dashoffset: 0; stroke-linejoin: miter; stroke-miterlimit: 4; is-custom-font: none; font-file-url: none; fill: rgb(255,255,255); fill-rule: nonzero; opacity: 1;" transform=" translate(-122.2105, -143.8935)" d="M 164.619 164.616 C 157.371 177.47 143.598 186.157 127.791 186.157 C 112.081 186.157 98.386 177.579 91.101 164.861 C 87.562 158.681 85.527 151.526 85.527 143.893 C 85.527 120.552 104.45 101.63 127.791 101.63 C 143.4 101.63 157.023 110.101 164.344 122.689 L 201.285 101.417 C 186.602 76.071 159.189 59.019 127.791 59.019 C 80.915 59.019 42.916 97.019 42.916 143.893 C 42.916 159.271 47.007 173.692 54.157 186.131 C 68.803 211.611 96.294 228.768 127.791 228.768 C 159.346 228.768 186.88 211.542 201.505 185.987 L 164.619 164.616" stroke-linecap="round"/>
</g>
</g>
</g>
</svg>