<svg xmlns="http://www.w3.org/2000/svg"
	xmlns:xlink="http://www.w3.org/1999/xlink" version="1.1" width="64" height="64" viewBox="0 0 64 64" xml:space="preserve">
	<desc>Created with Fabric.js 3.5.0</desc>
	<defs>
	</defs>
	<rect x="0" y="0" width="100%" height="100%" fill="rgba(255,255,255,0)"/>
	<g transform="matrix(1.3333 0 0 1.3333 31.9992 31.9992)" id="327117">
		<g style="" vector-effect="non-scaling-stroke">
			<g transform="matrix(1 0 0 1 0 0)" id="781549">
				<path style="stroke: none; stroke-width: 1; stroke-dasharray: none; stroke-linecap: butt; stroke-dashoffset: 0; stroke-linejoin: miter; stroke-miterlimit: 4; is-custom-font: none; font-file-url: none; fill: rgb(55,71,79); fill-rule: evenodd; opacity: 1;" transform=" translate(-24, -24)" d="M 22.7 0.3 c 0.8 -0.4 1.7 -0.4 2.5 0 C 29.1 2.5 40.6 9 44.5 11.1 c 0.8 0.4 1.3 1.2 1.3 2.1 c 0 4.3 0 17.3 0 21.6 c 0 0.9 -0.5 1.7 -1.3 2.1 c -3.8 2.2 -15.4 8.6 -19.2 10.8 c -0.8 0.4 -1.7 0.4 -2.5 0 C 18.9 45.5 7.4 39 3.5 36.9 c -0.8 -0.4 -1.3 -1.2 -1.3 -2.1 c 0 -4.3 0 -17.3 0 -21.6 c 0 -0.9 0.5 -1.7 1.3 -2.1 C 7.4 9 18.9 2.5 22.7 0.3 z" stroke-linecap="round"/>
			</g>
			<g transform="matrix(1 0 0 1 -0.25 -6.05)" id="800622">
				<path style="stroke: none; stroke-width: 1; stroke-dasharray: none; stroke-linecap: butt; stroke-dashoffset: 0; stroke-linejoin: miter; stroke-miterlimit: 4; is-custom-font: none; font-file-url: none; fill: rgb(84,110,122); fill-rule: evenodd; opacity: 1;" transform=" translate(-23.75, -17.95)" d="M 2.6 35.9 c -0.3 -0.4 -0.3 -0.8 -0.3 -1.3 c 0 -4.3 0 -17.2 0 -21.4 c 0 -0.9 0.5 -1.7 1.3 -2.1 C 7.4 8.9 18.9 2.5 22.7 0.3 c 0.8 -0.4 1.8 -0.4 2.6 0 C 29.1 2.5 40.6 8.9 44.4 11 c 0.3 0.2 0.5 0.4 0.8 0.7 L 2.6 35.9 z" stroke-linecap="round"/>
			</g>
			<g transform="matrix(1 0 0 1 0 0)" id="832320">
				<path style="stroke: none; stroke-width: 1; stroke-dasharray: none; stroke-linecap: butt; stroke-dashoffset: 0; stroke-linejoin: miter; stroke-miterlimit: 4; is-custom-font: none; font-file-url: none; fill: rgb(255,255,255); fill-rule: evenodd; opacity: 1;" transform=" translate(-24, -24)" d="M 24 8 c 8.8 0 16 7.2 16 16 s -7.2 16 -16 16 S 8 32.8 8 24 S 15.2 8 24 8 z M 24 16 c 4.4 0 8 3.6 8 8 c 0 4.4 -3.6 8 -8 8 s -8 -3.6 -8 -8 C 16 19.6 19.6 16 24 16 z" stroke-linecap="round"/>
			</g>
			<g transform="matrix(1 0 0 1 10.6 -0.15)" id="683351">
				<path style="stroke: none; stroke-width: 1; stroke-dasharray: none; stroke-linecap: butt; stroke-dashoffset: 0; stroke-linejoin: miter; stroke-miterlimit: 4; is-custom-font: none; font-file-url: none; fill: rgb(69,90,100); fill-rule: evenodd; opacity: 1;" transform=" translate(-34.6, -23.85)" d="M 45.1 11.7 c 0.6 0.6 0.6 1.4 0.6 2 c 0 4.3 0 16.7 0 21 c 0 0.5 -0.1 0.9 -0.4 1.3 L 23.5 24 L 45.1 11.7 z" stroke-linecap="round"/>
			</g>
			<g transform="matrix(1 0 0 1 13.7 -0.05)" id="109924">
				<path style="stroke: none; stroke-width: 1; stroke-dasharray: none; stroke-linecap: butt; stroke-dashoffset: 0; stroke-linejoin: miter; stroke-miterlimit: 4; is-custom-font: none; font-file-url: none; fill: rgb(255,255,255); fill-rule: evenodd; opacity: 1;" transform=" translate(-37.7, -23.95)" d="M 35.4 19.4 h 1.1 v 9.1 h -1.1 V 19.4 z M 38.9 19.4 H 40 v 9.1 h -1.1 V 19.4 z" stroke-linecap="round"/>
			</g>
			<g transform="matrix(1 0 0 1 13.65 -0.05)" id="288982">
				<path style="stroke: none; stroke-width: 1; stroke-dasharray: none; stroke-linecap: butt; stroke-dashoffset: 0; stroke-linejoin: miter; stroke-miterlimit: 4; is-custom-font: none; font-file-url: none; fill: rgb(255,255,255); fill-rule: evenodd; opacity: 1;" transform=" translate(-37.65, -23.95)" d="M 33.1 25.1 h 9.1 v 1.1 h -9.1 V 25.1 z M 33.1 21.7 h 9.1 v 1.1 h -9.1 V 21.7 z" stroke-linecap="round"/>
			</g>
		</g>
	</g>
</svg>