<?xml version="1.0" encoding="UTF-8"?>
<svg xmlns="http://www.w3.org/2000/svg"
    xmlns:xlink="http://www.w3.org/1999/xlink" width="64px" height="64px" viewBox="0 0 64 62" version="1.1">
    <g id="surface1">
        <path style=" stroke:none;fill-rule:nonzero;fill:rgb(44.705882%,53.72549%,85.490196%);fill-opacity:1;" d="M 27.273438 26.839844 C 25.78125 26.839844 24.605469 28.132812 24.605469 29.707031 C 24.605469 31.285156 25.808594 32.574219 27.273438 32.574219 C 28.761719 32.574219 29.9375 31.285156 29.9375 29.707031 C 29.960938 28.132812 28.761719 26.839844 27.273438 26.839844 Z M 36.804688 26.839844 C 35.316406 26.839844 34.140625 28.132812 34.140625 29.707031 C 34.140625 31.285156 35.34375 32.574219 36.804688 32.574219 C 38.296875 32.574219 39.472656 31.285156 39.472656 29.707031 C 39.472656 28.132812 38.296875 26.839844 36.804688 26.839844 Z M 36.804688 26.839844 "/>
        <path style=" stroke:none;fill-rule:nonzero;fill:rgb(44.705882%,53.72549%,85.490196%);fill-opacity:1;" d="M 49.503906 5.167969 L 14.496094 5.167969 C 11.546875 5.167969 9.144531 7.542969 9.144531 10.488281 L 9.144531 45.414062 C 9.144531 48.359375 11.546875 50.738281 14.496094 50.738281 L 44.121094 50.738281 L 42.734375 45.957031 L 46.078125 49.03125 L 49.242188 51.925781 L 54.855469 56.832031 L 54.855469 10.488281 C 54.855469 7.542969 52.453125 5.167969 49.503906 5.167969 Z M 39.417969 38.90625 C 39.417969 38.90625 38.476562 37.792969 37.695312 36.8125 C 41.117188 35.855469 42.421875 33.738281 42.421875 33.738281 C 41.351562 34.4375 40.332031 34.925781 39.417969 35.261719 C 38.113281 35.804688 36.859375 36.167969 35.632812 36.375 C 33.125 36.839844 30.824219 36.710938 28.867188 36.347656 C 27.375 36.0625 26.097656 35.648438 25.023438 35.238281 C 24.425781 35.003906 23.769531 34.71875 23.117188 34.359375 C 23.039062 34.308594 22.960938 34.28125 22.882812 34.230469 C 22.832031 34.203125 22.804688 34.175781 22.777344 34.152344 C 22.308594 33.894531 22.046875 33.710938 22.046875 33.710938 C 22.046875 33.710938 23.300781 35.777344 26.617188 36.761719 C 25.835938 37.742188 24.867188 38.90625 24.867188 38.90625 C 19.09375 38.722656 16.902344 34.976562 16.902344 34.976562 C 16.902344 26.660156 20.664062 19.917969 20.664062 19.917969 C 24.425781 17.128906 28.003906 17.203125 28.003906 17.203125 L 28.265625 17.515625 C 23.5625 18.859375 21.394531 20.898438 21.394531 20.898438 C 21.394531 20.898438 21.96875 20.589844 22.933594 20.148438 C 25.730469 18.9375 27.949219 18.601562 28.867188 18.523438 C 29.023438 18.496094 29.152344 18.472656 29.308594 18.472656 C 30.902344 18.265625 32.707031 18.210938 34.585938 18.417969 C 37.066406 18.703125 39.730469 19.425781 42.449219 20.898438 C 42.449219 20.898438 40.386719 18.960938 35.945312 17.617188 L 36.308594 17.203125 C 36.308594 17.203125 39.890625 17.128906 43.652344 19.917969 C 43.652344 19.917969 47.414062 26.660156 47.414062 34.976562 C 47.414062 34.976562 45.191406 38.722656 39.417969 38.90625 Z M 39.417969 38.90625 "/>
    </g>
</svg>
