<?xml version="1.0" encoding="UTF-8"?>
<svg xmlns="http://www.w3.org/2000/svg"
    xmlns:xlink="http://www.w3.org/1999/xlink" width="32px" height="31px" viewBox="0 0 32 31" version="1.1">
    <g id="surface1">
        <path style=" stroke:none;fill-rule:nonzero;fill:rgb(82.745098%,0%,1.568627%);fill-opacity:1;" d="M 3.683594 6.125 C 3.648438 5.101562 3.804688 4.117188 4.433594 3.261719 C 4.453125 3.703125 4.503906 4.125 4.679688 4.542969 C 5.03125 2.914062 5.84375 1.617188 7.175781 0.65625 C 7.0625 1.007812 6.96875 1.355469 7 1.707031 C 7.511719 1.265625 8.109375 0.648438 9.617188 0.359375 C 10.484375 0.195312 11.367188 0.242188 12.101562 0.417969 C 14.367188 0.96875 15.695312 2.453125 16.210938 4.710938 C 16.523438 6.082031 16.25 7.382812 15.71875 8.652344 C 15.414062 9.386719 15.011719 10.101562 14.5 10.734375 C 14.382812 10.625 14.269531 10.507812 14.15625 10.402344 C 11.632812 7.980469 12.578125 8.90625 11.953125 8.179688 C 11.886719 8.109375 11.890625 8.054688 11.945312 7.96875 C 12.4375 7.167969 12.640625 6.296875 12.535156 5.359375 C 12.46875 4.773438 12.28125 4.234375 11.867188 3.800781 C 11.015625 2.890625 9.554688 2.914062 8.714844 3.835938 C 8.039062 4.578125 7.882812 5.460938 8.070312 6.425781 C 8.085938 6.5 8.09375 6.585938 8.070312 6.65625 C 7.871094 7.46875 7.800781 8.296875 7.921875 9.125 C 7.929688 9.15625 7.929688 9.191406 7.929688 9.21875 C 7.929688 9.238281 7.921875 9.25 7.917969 9.289062 C 6.632812 8.632812 5.796875 7.609375 5.371094 6.1875 C 4.882812 7.242188 4.71875 8.296875 4.980469 9.398438 C 4.0625 8.5 3.726562 7.363281 3.683594 6.125 Z M 31.375 13.4375 C 30.691406 12.75 29.898438 12.226562 29.011719 11.859375 C 28.257812 11.546875 27.476562 11.390625 26.65625 11.4375 C 26.070312 11.46875 25.5 11.617188 24.945312 11.8125 C 24.800781 11.867188 24.648438 11.910156 24.492188 11.945312 C 24.203125 12.015625 24.0625 11.761719 24.21875 11.542969 C 24.40625 11.269531 24.417969 11.292969 25.101562 10.828125 C 25.136719 10.804688 25.171875 10.78125 25.230469 10.742188 L 25.085938 10.742188 C 25.046875 10.742188 25.015625 10.75 24.96875 10.757812 C 23.835938 10.953125 23.164062 11.679688 22.085938 12.515625 C 21.476562 12.996094 21.273438 12.742188 21.382812 12.484375 C 21.460938 12.28125 21.574219 12.085938 21.679688 11.890625 C 21.742188 11.785156 21.816406 11.691406 21.886719 11.589844 C 21.875 11.578125 21.859375 11.570312 21.84375 11.5625 C 20.253906 12.648438 19.09375 14.078125 18.445312 15.914062 C 18.460938 15.929688 18.484375 15.945312 18.5 15.964844 C 18.519531 15.929688 18.53125 15.890625 18.554688 15.863281 C 19.171875 15.148438 19.898438 14.570312 20.714844 14.09375 C 21.789062 13.464844 22.925781 13.007812 24.175781 12.898438 C 24.429688 12.871094 24.6875 12.890625 24.945312 12.890625 C 24.84375 12.929688 24.742188 12.945312 24.632812 12.953125 C 23.546875 13.097656 22.539062 13.492188 21.597656 14.054688 C 19.820312 15.117188 18.382812 16.558594 17.171875 18.234375 C 17.152344 18.257812 17.148438 18.285156 17.128906 18.308594 C 17.984375 18.625 18.546875 19.335938 19.257812 19.828125 C 19.269531 19.820312 19.273438 19.816406 19.28125 19.804688 L 19.351562 19.644531 C 20.070312 18.046875 20.945312 16.539062 22.105469 15.222656 C 23.089844 14.109375 24.34375 13.71875 25.789062 14.035156 C 26.140625 14.113281 26.460938 14.296875 26.804688 14.4375 C 26.941406 14.355469 27.105469 14.25 27.277344 14.160156 C 27.773438 13.90625 28.304688 13.742188 28.851562 13.625 C 29.71875 13.441406 30.59375 13.335938 31.476562 13.546875 L 31.476562 13.519531 C 31.445312 13.496094 31.40625 13.46875 31.375 13.4375 Z M 17.492188 23.851562 C 15.171875 21.894531 16.148438 22.695312 14.976562 21.742188 C 14.929688 21.796875 14.976562 21.726562 14.867188 21.917969 C 14.203125 23.054688 13.359375 24.015625 12.269531 24.742188 C 11.664062 25.148438 11 25.445312 10.257812 25.445312 C 8.984375 25.445312 8.007812 24.882812 7.34375 23.796875 C 6.640625 22.636719 6.5625 21.378906 6.863281 20.078125 C 7.320312 18.070312 8.636719 16.800781 9.140625 16.261719 C 8.035156 15.890625 7.195312 16.363281 6.402344 17.085938 C 6.449219 16.261719 6.65625 15.53125 7.097656 14.875 C 5.664062 15.5 4.390625 16.359375 3.277344 17.476562 C 3.257812 17.132812 3.59375 14.882812 3.609375 14.824219 C 3.625 14.664062 3.570312 14.507812 3.429688 14.382812 C 2.003906 15.851562 0.804688 17.460938 0.125 19.40625 C 0.558594 19.054688 1 18.730469 1.515625 18.445312 C 1.023438 19.769531 0.359375 21.578125 1.054688 24.445312 C 1.328125 25.578125 1.757812 26.632812 2.476562 27.554688 C 2.648438 27.773438 2.84375 27.960938 3.035156 28.164062 C 3.046875 28.152344 3.058594 28.148438 3.070312 28.132812 C 2.988281 27.71875 2.941406 27.296875 2.984375 26.835938 C 3.109375 27.023438 3.210938 27.1875 3.328125 27.34375 C 4.070312 28.296875 5.023438 28.96875 6.113281 29.457031 C 7.585938 30.128906 9.125 30.246094 10.707031 29.96875 C 13.945312 29.390625 16.054688 27.085938 17.546875 24.101562 C 17.605469 23.996094 17.582031 23.929688 17.492188 23.851562 Z M 27.636719 21.101562 C 27.078125 20.914062 26.328125 20.851562 25.945312 20.929688 C 26.527344 21.164062 26.773438 21.320312 27.054688 21.640625 C 27.796875 22.492188 27.664062 23.699219 26.734375 24.34375 C 26.046875 24.828125 25.265625 24.96875 24.441406 24.886719 C 24.367188 24.882812 24.304688 24.863281 24.265625 24.851562 C 24.429688 24.632812 24.617188 24.4375 24.742188 24.210938 C 25.296875 23.210938 25.0625 21.710938 24.226562 20.878906 C 24.105469 20.757812 23.957031 20.648438 23.816406 20.53125 C 23.796875 20.609375 23.8125 20.65625 23.820312 20.695312 C 24.070312 21.679688 23.34375 22.617188 22.359375 22.585938 C 21.910156 22.566406 21.539062 22.359375 21.203125 22.078125 C 20.054688 21.125 18.898438 20.171875 17.753906 19.210938 C 17.40625 18.921875 17.015625 18.730469 16.570312 18.695312 C 16.296875 18.671875 16.019531 18.660156 15.75 18.640625 C 15.398438 18.617188 15.230469 18.476562 15.132812 18.140625 C 15.082031 17.941406 15.046875 17.742188 15.007812 17.539062 C 14.917969 17.054688 14.640625 16.765625 14.164062 16.695312 C 13.902344 16.652344 13.640625 16.632812 13.378906 16.605469 C 12.609375 16.523438 12.210938 16.164062 12.046875 15.398438 C 11.75 16.054688 11.953125 16.730469 12.476562 17.175781 C 12.742188 17.398438 13.023438 17.609375 13.289062 17.839844 C 13.5625 18.066406 13.726562 18.359375 13.757812 18.71875 C 13.78125 19 13.804688 19.28125 13.859375 19.554688 C 13.992188 20.1875 14.386719 20.648438 14.867188 21.046875 C 15.835938 21.859375 16.8125 22.664062 17.78125 23.484375 C 18.835938 24.375 18.601562 25.433594 18.550781 26.8125 C 18.496094 28.171875 19.269531 29.359375 20.523438 29.851562 C 20.585938 29.875 20.640625 29.882812 20.738281 29.914062 C 19.8125 28.835938 20.140625 27.296875 20.78125 26.8125 C 20.796875 26.941406 20.804688 27.0625 20.832031 27.1875 C 21.386719 29.808594 23.507812 31 25.84375 30.570312 C 26.789062 30.394531 27.648438 30.039062 28.375 29.390625 C 28.492188 29.285156 28.59375 29.148438 28.722656 29.007812 C 27.585938 29.28125 26.609375 29.011719 25.71875 28.375 C 25.761719 28.359375 25.796875 28.359375 25.832031 28.359375 C 27.085938 28.46875 28.226562 28.15625 29.195312 27.328125 C 30.34375 26.34375 30.761719 24.78125 30.21875 23.40625 C 29.730469 22.214844 28.828125 21.492188 27.636719 21.101562 Z M 4.679688 10.894531 C 4.367188 10.351562 3.902344 9.96875 3.375 9.632812 C 4.1875 9.601562 4.945312 9.640625 5.710938 9.851562 C 5.296875 9.125 5.210938 8.382812 5.417969 7.554688 C 5.730469 8.257812 6.226562 8.746094 6.808594 9.144531 C 7.96875 9.929688 8.914062 10.304688 9.5625 10.9375 C 9.765625 11.132812 9.9375 11.359375 10.128906 11.585938 C 10.082031 11.460938 10.046875 11.339844 10 11.226562 C 9.703125 10.597656 9.234375 10.125 8.664062 9.742188 C 8.5625 9.671875 8.5 9.59375 8.46875 9.476562 C 8.273438 8.734375 8.289062 7.984375 8.425781 7.242188 C 8.484375 6.917969 8.589844 6.597656 8.6875 6.277344 C 8.738281 6.132812 8.828125 6.003906 8.925781 5.882812 C 8.960938 6.296875 8.925781 7.398438 10.082031 8.617188 C 10.71875 9.289062 11.402344 9.914062 12.082031 10.554688 C 12.609375 11.0625 13.160156 11.546875 13.585938 12.148438 C 13.648438 12.242188 13.714844 12.34375 13.808594 12.429688 C 13.515625 11.65625 12.96875 10.996094 12.382812 10.421875 C 11.816406 9.867188 11.238281 9.328125 10.660156 8.792969 C 10.464844 8.617188 10.390625 8.398438 10.359375 8.148438 C 10.289062 7.53125 10.359375 6.921875 10.613281 6.351562 C 10.640625 6.296875 10.679688 6.234375 10.726562 6.15625 C 10.753906 6.40625 10.757812 6.625 10.804688 6.847656 C 11.089844 8.21875 12.007812 9 13.714844 10.617188 C 14.304688 11.171875 14.851562 11.757812 15.226562 12.492188 C 15.507812 13.046875 15.65625 13.617188 15.5625 14.25 C 15.554688 14.285156 15.589844 14.351562 15.625 14.367188 C 15.992188 14.523438 16.214844 14.777344 16.195312 15.21875 C 16.648438 15.0625 16.933594 14.742188 17.164062 14.355469 C 17.414062 15.554688 16.625 17.34375 15.5625 17.839844 C 15.585938 17.574219 15.855469 16.453125 14.585938 16.195312 C 14.1875 16.117188 13.832031 16.117188 13.234375 16.070312 C 13.515625 15.539062 13.851562 14.851562 13.265625 14.742188 C 11.796875 14.46875 10.152344 14.855469 9.859375 15.015625 C 10.34375 15.039062 10.820312 15.074219 11.242188 15.210938 C 11.125 15.59375 11.007812 15.964844 10.902344 16.332031 C 10.789062 16.71875 11.023438 17.199219 11.449219 16.902344 C 11.523438 16.851562 11.585938 16.789062 11.644531 16.742188 C 11.460938 17.804688 11.476562 17.6875 11.480469 17.828125 C 11.5 18.433594 12.039062 18.289062 12.40625 18.261719 C 12.257812 18.960938 10.664062 19.882812 9.726562 19.792969 C 10.140625 19.515625 10.476562 19.179688 10.664062 18.730469 C 10.28125 18.78125 9.90625 18.828125 9.53125 18.875 L 9.515625 18.820312 C 9.792969 18.617188 9.988281 18.359375 10.117188 18.042969 C 10.632812 16.789062 9.90625 15.789062 8.640625 15.671875 C 8.109375 15.625 7.59375 15.71875 7.117188 16 C 7.484375 15.074219 8.132812 14.421875 9.039062 13.953125 C 8.140625 13.695312 8.515625 13.792969 7.585938 13.578125 C 8.449219 13.023438 9.367188 12.796875 10.328125 12.710938 C 10.023438 12.523438 7.492188 12.5 6.1875 13.953125 C 6.65625 14.035156 7.101562 14.117188 7.558594 14.203125 C 6.15625 14.617188 4.960938 15.371094 3.878906 16.3125 C 3.945312 16.03125 4.039062 15.75 4.070312 15.46875 C 4.109375 15.199219 4.121094 14.921875 4.078125 14.65625 C 3.992188 14.101562 3.554688 13.761719 2.917969 13.691406 C 2.453125 13.640625 2 13.695312 1.542969 13.765625 C 1.492188 13.773438 1.445312 13.789062 1.375 13.765625 C 2.304688 12.890625 3.496094 12.480469 4.503906 11.78125 C 4.859375 11.511719 4.90625 11.292969 4.679688 10.894531 Z M 12.25 12.484375 C 12.445312 13.4375 12.992188 14 13.65625 13.929688 C 13.382812 13.257812 12.941406 12.773438 12.25 12.484375 Z M 12.25 12.484375 "/>
    </g>
</svg>
