<?xml version="1.0" encoding="UTF-8"?>
<svg xmlns="http://www.w3.org/2000/svg" xmlns:xlink="http://www.w3.org/1999/xlink" width="64px" height="64px" viewBox="0 0 64 64" version="1.1">
<g id="surface1">
<path style=" stroke:none;fill-rule:nonzero;fill:rgb(94.117647%,31.764706%,20%);fill-opacity:1;" d="M 61.167969 29.300781 L 34.699219 2.832031 C 33.175781 1.304688 30.703125 1.304688 29.175781 2.832031 L 23.679688 8.328125 L 30.652344 15.300781 C 32.273438 14.753906 34.132812 15.121094 35.421875 16.414062 C 36.722656 17.710938 37.085938 19.585938 36.523438 21.210938 L 43.246094 27.933594 C 44.871094 27.371094 46.746094 27.734375 48.046875 29.035156 C 49.859375 30.847656 49.859375 33.789062 48.046875 35.605469 C 46.230469 37.421875 43.289062 37.421875 41.472656 35.605469 C 40.109375 34.238281 39.769531 32.234375 40.464844 30.550781 L 34.195312 24.285156 L 34.195312 40.777344 C 34.636719 40.996094 35.054688 41.289062 35.421875 41.65625 C 37.238281 43.472656 37.238281 46.410156 35.421875 48.226562 C 33.609375 50.042969 30.667969 50.042969 28.851562 48.226562 C 27.039062 46.410156 27.039062 43.46875 28.851562 41.65625 C 29.300781 41.207031 29.820312 40.871094 30.375 40.644531 L 30.375 23.996094 C 29.820312 23.769531 29.304688 23.433594 28.851562 22.980469 C 27.480469 21.609375 27.148438 19.589844 27.851562 17.902344 L 20.980469 11.027344 L 2.828125 29.175781 C 1.304688 30.703125 1.304688 33.175781 2.828125 34.699219 L 29.300781 61.171875 C 30.824219 62.695312 33.296875 62.695312 34.824219 61.171875 L 61.167969 34.824219 C 62.695312 33.296875 62.695312 30.824219 61.167969 29.300781 Z M 61.167969 29.300781 "/>
</g>
</svg>
