<?xml version="1.0" encoding="UTF-8"?>
<svg xmlns="http://www.w3.org/2000/svg" xmlns:xlink="http://www.w3.org/1999/xlink" width="64px" height="64px" viewBox="0 0 64 64" version="1.1">
<g id="surface1">
<path style=" stroke:none;fill-rule:nonzero;fill:rgb(36.078431%,41.960784%,75.294118%);fill-opacity:1;" d="M 31.996094 0.667969 C 14.328125 0.667969 0 15.050781 0 32.792969 C 0 46.984375 9.167969 59.027344 21.886719 63.277344 C 23.488281 63.574219 24.070312 62.582031 24.070312 61.730469 C 24.070312 60.964844 24.042969 58.945312 24.027344 56.265625 C 15.128906 58.207031 13.246094 51.957031 13.246094 51.957031 C 11.796875 48.246094 9.695312 47.257812 9.695312 47.257812 C 6.789062 45.265625 9.910156 45.304688 9.910156 45.304688 C 13.125 45.535156 14.8125 48.617188 14.8125 48.617188 C 17.667969 53.527344 22.304688 52.109375 24.128906 51.285156 C 24.414062 49.210938 25.242188 47.792969 26.160156 46.988281 C 19.054688 46.179688 11.585938 43.421875 11.585938 31.113281 C 11.585938 27.605469 12.832031 24.738281 14.878906 22.488281 C 14.546875 21.679688 13.453125 18.410156 15.191406 13.988281 C 15.191406 13.988281 17.878906 13.125 23.992188 17.28125 C 26.542969 16.570312 29.28125 16.214844 32.003906 16.203125 C 34.71875 16.21875 37.460938 16.570312 40.015625 17.285156 C 46.125 13.128906 48.808594 13.992188 48.808594 13.992188 C 50.550781 18.417969 49.457031 21.683594 49.128906 22.492188 C 51.179688 24.742188 52.414062 27.609375 52.414062 31.117188 C 52.414062 43.457031 44.9375 46.175781 37.808594 46.96875 C 38.957031 47.960938 39.980469 49.921875 39.980469 52.917969 C 39.980469 57.214844 39.941406 60.679688 39.941406 61.730469 C 39.941406 62.589844 40.515625 63.589844 42.140625 63.273438 C 54.839844 59.019531 64 46.980469 64 32.792969 C 64 15.050781 49.671875 0.667969 31.996094 0.667969 Z M 31.996094 0.667969 "/>
</g>
</svg>
