<?xml version="1.0" encoding="UTF-8"?>
<svg xmlns="http://www.w3.org/2000/svg" xmlns:xlink="http://www.w3.org/1999/xlink" width="64px" height="64px" viewBox="0 0 64 64" version="1.1">
<g id="surface1">
<path style=" stroke:none;fill-rule:nonzero;fill:rgb(90.196078%,31.764706%,0%);fill-opacity:1;" d="M 60.667969 0 L 3.332031 0 L 8.398438 57.199219 L 32 64 L 55.601562 57.199219 Z M 60.667969 0 "/>
<path style=" stroke:none;fill-rule:nonzero;fill:rgb(100%,42.745098%,0%);fill-opacity:1;" d="M 32 5.066406 L 32 58.800781 L 50.800781 53.464844 L 55.066406 5.066406 Z M 32 5.066406 "/>
<path style=" stroke:none;fill-rule:nonzero;fill:rgb(100%,100%,100%);fill-opacity:1;" d="M 32 33.734375 L 32 26.933594 L 46.535156 26.933594 L 45.332031 46.265625 L 32 50.667969 L 32 43.601562 L 38.933594 41.199219 L 39.464844 33.601562 C 39.464844 33.734375 32 33.734375 32 33.734375 Z M 46.933594 20.265625 L 47.464844 13.464844 L 32 13.464844 L 32 20.265625 Z M 46.933594 20.265625 "/>
<path style=" stroke:none;fill-rule:nonzero;fill:rgb(93.333333%,93.333333%,93.333333%);fill-opacity:1;" d="M 32 43.601562 L 32 50.667969 L 18.667969 46.265625 L 18 37.066406 L 24.800781 37.066406 L 25.199219 41.332031 Z M 23.734375 20.265625 L 32 20.265625 L 32 13.464844 L 16.667969 13.464844 L 17.867188 33.734375 L 32 33.734375 L 32 26.933594 L 24.265625 26.933594 Z M 23.734375 20.265625 "/>
</g>
</svg>
