<?xml version="1.0" encoding="UTF-8"?>
<svg xmlns="http://www.w3.org/2000/svg"
    xmlns:xlink="http://www.w3.org/1999/xlink" width="64px" height="64px" viewBox="0 0 64 64" version="1.1">
    <g id="surface1">
        <rect x="0" y="0" width="64" height="64" style="fill:rgb(100%,83.921569%,0%);fill-opacity:1;stroke:none;"/>
        <path style=" stroke:none;fill-rule:nonzero;fill:rgb(0%,0%,0.392157%);fill-opacity:1;" d="M 41.867188 47.867188 C 43.066406 49.867188 44.398438 51.734375 47.199219 51.734375 C 49.601562 51.734375 50.800781 50.535156 50.800781 48.933594 C 50.800781 46.933594 49.464844 46.265625 46.933594 45.199219 L 45.464844 44.535156 C 41.332031 42.800781 38.667969 40.667969 38.667969 36 C 38.667969 31.734375 42 28.398438 47.066406 28.398438 C 50.667969 28.398438 53.332031 29.601562 55.199219 32.933594 L 50.667969 35.734375 C 49.734375 34 48.667969 33.332031 46.933594 33.332031 C 45.199219 33.332031 44.132812 34.398438 44.132812 35.734375 C 44.132812 37.464844 45.199219 38.132812 47.601562 39.199219 L 49.066406 39.867188 C 54 42 56.667969 44.132812 56.667969 48.800781 C 56.667969 54 52.667969 56.800781 47.199219 56.800781 C 41.867188 56.800781 38.800781 54.132812 37.199219 50.800781 Z M 21.199219 48 C 22.132812 49.601562 23.464844 50.800781 25.464844 50.800781 C 27.332031 50.800781 28.398438 50 28.398438 47.199219 L 28.398438 28.398438 L 34.265625 28.398438 L 34.265625 48.132812 C 34.265625 54.132812 30.800781 56.800781 25.734375 56.800781 C 21.199219 56.800781 17.867188 53.734375 16.535156 50.800781 Z M 21.199219 48 "/>
    </g>
</svg>
