<?xml version="1.0" encoding="UTF-8"?>
<svg xmlns="http://www.w3.org/2000/svg"
    xmlns:xlink="http://www.w3.org/1999/xlink" width="64px" height="64px" viewBox="0 0 64 64" version="1.1">
    <g id="surface1">
        <path style=" stroke:none;fill-rule:nonzero;fill:rgb(0%,0%,49.019608%);fill-opacity:1;" d="M 56.460938 32.007812 C 56.460938 18.5 45.5 7.539062 31.996094 7.539062 C 18.488281 7.539062 7.527344 18.5 7.527344 32.007812 C 7.527344 45.511719 18.488281 56.472656 31.996094 56.472656 C 45.5 56.472656 56.460938 45.511719 56.460938 32.003906 "/>
        <path style=" stroke:none;fill-rule:nonzero;fill:rgb(100%,100%,100%);fill-opacity:1;" d="M 49.296875 21.867188 C 49.296875 17.914062 46.089844 14.703125 42.132812 14.703125 C 38.175781 14.703125 34.964844 17.914062 34.964844 21.867188 C 34.964844 25.824219 38.175781 29.035156 42.132812 29.035156 C 46.089844 29.035156 49.296875 25.824219 49.296875 21.867188 "/>
        <path style=" stroke:none;fill-rule:nonzero;fill:rgb(0%,0%,49.019608%);fill-opacity:1;" d="M 63.628906 7.539062 C 63.628906 3.582031 60.417969 0.371094 56.460938 0.371094 C 52.507812 0.371094 49.296875 3.582031 49.296875 7.539062 C 49.296875 11.496094 52.507812 14.703125 56.460938 14.703125 C 60.417969 14.703125 63.628906 11.496094 63.628906 7.539062 "/>
        <path style=" stroke:none;fill-rule:nonzero;fill:rgb(100%,100%,100%);fill-opacity:1;" d="M 15.3125 28.4375 L 17.453125 28.4375 L 17.453125 42.351562 L 25.375 42.351562 L 25.375 44.234375 L 15.3125 44.234375 L 15.3125 28.4375 M 29.238281 32.71875 L 29.238281 40.363281 C 29.238281 40.949219 29.328125 41.429688 29.507812 41.804688 C 29.84375 42.492188 30.46875 42.835938 31.382812 42.835938 C 32.695312 42.835938 33.589844 42.234375 34.0625 41.03125 C 34.320312 40.382812 34.453125 39.5 34.453125 38.375 L 34.453125 32.71875 L 36.386719 32.71875 L 36.386719 44.234375 L 34.558594 44.234375 L 34.582031 42.535156 C 34.335938 42.972656 34.027344 43.339844 33.660156 43.644531 C 32.9375 44.246094 32.058594 44.546875 31.023438 44.546875 C 29.414062 44.546875 28.316406 43.996094 27.734375 42.902344 C 27.417969 42.3125 27.257812 41.527344 27.257812 40.546875 L 27.257812 32.71875 L 29.238281 32.71875 M 45.71875 37.265625 C 46.164062 37.207031 46.460938 37.023438 46.613281 36.707031 C 46.699219 36.535156 46.742188 36.285156 46.742188 35.960938 C 46.742188 35.300781 46.507812 34.820312 46.039062 34.519531 C 45.570312 34.222656 44.898438 34.074219 44.027344 34.074219 C 43.019531 34.074219 42.300781 34.347656 41.878906 34.894531 C 41.644531 35.195312 41.492188 35.648438 41.417969 36.246094 L 39.613281 36.246094 C 39.648438 34.820312 40.109375 33.832031 40.992188 33.273438 C 41.875 32.71875 42.902344 32.4375 44.070312 32.4375 C 45.421875 32.4375 46.523438 32.695312 47.367188 33.214844 C 48.203125 33.730469 48.621094 34.53125 48.621094 35.621094 L 48.621094 42.257812 C 48.621094 42.457031 48.664062 42.617188 48.746094 42.738281 C 48.828125 42.863281 49.003906 42.921875 49.269531 42.921875 C 49.355469 42.921875 49.449219 42.917969 49.558594 42.90625 C 49.664062 42.894531 49.78125 42.878906 49.902344 42.859375 L 49.902344 44.289062 C 49.601562 44.375 49.371094 44.425781 49.214844 44.449219 C 49.054688 44.46875 48.839844 44.480469 48.570312 44.480469 C 47.902344 44.480469 47.417969 44.246094 47.117188 43.773438 C 46.960938 43.519531 46.847656 43.167969 46.785156 42.707031 C 46.390625 43.222656 45.824219 43.671875 45.085938 44.050781 C 44.347656 44.429688 43.535156 44.621094 42.644531 44.621094 C 41.578125 44.621094 40.703125 44.296875 40.027344 43.648438 C 39.347656 43 39.011719 42.191406 39.011719 41.214844 C 39.011719 40.148438 39.34375 39.324219 40.011719 38.734375 C 40.675781 38.148438 41.550781 37.789062 42.632812 37.652344 Z M 41.644531 42.492188 C 42.054688 42.816406 42.535156 42.976562 43.097656 42.976562 C 43.777344 42.976562 44.4375 42.820312 45.074219 42.503906 C 46.148438 41.980469 46.6875 41.125 46.6875 39.9375 L 46.6875 38.382812 C 46.453125 38.53125 46.148438 38.660156 45.773438 38.757812 C 45.402344 38.859375 45.039062 38.929688 44.679688 38.972656 L 43.511719 39.125 C 42.808594 39.21875 42.28125 39.363281 41.929688 39.566406 C 41.332031 39.902344 41.03125 40.4375 41.03125 41.171875 C 41.03125 41.730469 41.234375 42.171875 41.644531 42.492188 Z M 41.644531 42.492188 "/>
        <path style=" stroke:none;fill-rule:nonzero;fill:rgb(57.254902%,57.254902%,57.254902%);fill-opacity:1;" d="M 33.132812 63.980469 L 33.109375 63.246094 C 34.015625 63.214844 34.929688 63.144531 35.824219 63.035156 L 35.914062 63.765625 C 34.996094 63.875 34.0625 63.949219 33.132812 63.980469 Z M 30.34375 63.960938 C 29.414062 63.910156 28.480469 63.824219 27.566406 63.695312 L 27.664062 62.96875 C 28.5625 63.09375 29.472656 63.179688 30.378906 63.226562 L 30.34375 63.957031 Z M 38.667969 63.304688 L 38.515625 62.585938 C 39.402344 62.398438 40.289062 62.167969 41.15625 61.902344 L 41.371094 62.605469 C 40.480469 62.878906 39.578125 63.109375 38.667969 63.304688 Z M 24.820312 63.191406 C 23.917969 62.984375 23.011719 62.734375 22.128906 62.449219 L 22.355469 61.75 C 23.222656 62.03125 24.097656 62.273438 24.984375 62.476562 Z M 44 61.671875 L 43.722656 60.992188 C 44.566406 60.652344 45.394531 60.273438 46.203125 59.859375 L 46.539062 60.511719 C 45.707031 60.9375 44.863281 61.324219 44 61.671875 Z M 19.515625 61.46875 C 18.65625 61.105469 17.816406 60.703125 16.992188 60.265625 L 17.339844 59.621094 C 18.140625 60.046875 18.96875 60.441406 19.800781 60.792969 Z M 48.964844 59.136719 L 48.574219 58.511719 C 49.34375 58.03125 50.09375 57.515625 50.820312 56.964844 L 51.261719 57.550781 C 50.519531 58.113281 49.753906 58.640625 48.964844 59.136719 Z M 14.589844 58.847656 C 13.808594 58.339844 13.050781 57.800781 12.316406 57.226562 L 12.769531 56.648438 C 13.484375 57.210938 14.226562 57.738281 14.988281 58.234375 Z M 53.414062 55.773438 L 52.921875 55.230469 C 53.597656 54.621094 54.25 53.980469 54.867188 53.316406 L 55.40625 53.816406 C 54.769531 54.5 54.105469 55.152344 53.414062 55.773438 Z M 10.195312 55.414062 C 9.511719 54.78125 8.859375 54.117188 8.238281 53.425781 L 8.78125 52.933594 C 9.390625 53.609375 10.03125 54.257812 10.695312 54.878906 Z M 57.21875 51.695312 L 56.640625 51.242188 C 57.199219 50.527344 57.730469 49.785156 58.226562 49.023438 L 58.839844 49.425781 C 58.332031 50.203125 57.792969 50.960938 57.21875 51.695312 Z M 6.457031 51.273438 C 5.898438 50.53125 5.367188 49.765625 4.875 48.976562 L 5.496094 48.585938 C 5.980469 49.359375 6.496094 50.105469 7.042969 50.832031 Z M 60.261719 47.019531 L 59.613281 46.675781 C 60.039062 45.875 60.433594 45.046875 60.789062 44.214844 L 61.464844 44.5 C 61.097656 45.359375 60.699219 46.199219 60.261719 47.019531 Z M 3.496094 46.550781 C 3.070312 45.722656 2.683594 44.875 2.335938 44.015625 L 3.015625 43.738281 C 3.355469 44.582031 3.734375 45.40625 4.148438 46.214844 Z M 62.441406 41.886719 L 61.746094 41.660156 C 62.023438 40.792969 62.269531 39.917969 62.472656 39.03125 L 63.1875 39.195312 C 62.976562 40.105469 62.730469 41 62.441406 41.886719 Z M 1.398438 41.382812 C 1.128906 40.496094 0.894531 39.59375 0.699219 38.683594 L 1.417969 38.53125 C 1.605469 39.417969 1.835938 40.300781 2.101562 41.167969 Z M 63.695312 36.453125 L 62.964844 36.351562 C 63.089844 35.457031 63.179688 34.542969 63.226562 33.636719 L 63.957031 33.675781 C 63.910156 34.601562 63.820312 35.53125 63.695312 36.453125 Z M 0.238281 35.929688 C 0.125 35.007812 0.0546875 34.078125 0.0195312 33.148438 L 0.753906 33.121094 C 0.785156 34.027344 0.859375 34.945312 0.96875 35.839844 Z M 63.246094 30.910156 C 63.214844 30.003906 63.144531 29.089844 63.035156 28.191406 L 63.761719 28.101562 C 63.875 29.019531 63.949219 29.957031 63.980469 30.882812 Z M 0.773438 30.394531 L 0.0429688 30.359375 C 0.0898438 29.429688 0.175781 28.496094 0.304688 27.582031 L 1.03125 27.679688 C 0.90625 28.578125 0.820312 29.488281 0.773438 30.394531 Z M 62.582031 25.5 C 62.394531 24.609375 62.167969 23.730469 61.902344 22.859375 L 62.601562 22.644531 C 62.875 23.535156 63.109375 24.4375 63.300781 25.347656 Z M 1.523438 25 L 0.804688 24.835938 C 1.015625 23.929688 1.261719 23.03125 1.546875 22.144531 L 2.246094 22.371094 C 1.96875 23.234375 1.726562 24.113281 1.523438 25 Z M 60.992188 20.289062 C 60.652344 19.449219 60.269531 18.613281 59.859375 17.804688 L 60.511719 17.472656 C 60.9375 18.300781 61.320312 19.148438 61.671875 20.011719 Z M 3.199219 19.816406 L 2.523438 19.527344 C 2.886719 18.671875 3.289062 17.832031 3.726562 17.007812 L 4.375 17.351562 C 3.949219 18.15625 3.554688 18.976562 3.199219 19.816406 Z M 5.757812 15.003906 L 5.144531 14.601562 C 5.652344 13.820312 6.191406 13.0625 6.765625 12.328125 L 7.34375 12.78125 C 6.78125 13.5 6.253906 14.238281 5.757812 15.003906 Z M 9.113281 10.707031 L 8.574219 10.207031 C 9.210938 9.523438 9.875 8.871094 10.5625 8.246094 L 11.054688 8.792969 C 10.382812 9.402344 9.734375 10.039062 9.113281 10.707031 Z M 13.15625 7.054688 L 12.714844 6.46875 C 13.457031 5.90625 14.222656 5.378906 15.011719 4.882812 L 15.402344 5.503906 C 14.632812 5.988281 13.882812 6.503906 13.15625 7.054688 Z M 49.03125 5.777344 L 48.992188 5.753906 L 49.390625 5.136719 L 49.429688 5.164062 Z M 46.636719 4.371094 C 45.835938 3.945312 45.011719 3.554688 44.175781 3.203125 L 44.460938 2.527344 C 45.316406 2.886719 46.160156 3.289062 46.980469 3.722656 Z M 17.769531 4.15625 L 17.4375 3.503906 C 18.265625 3.078125 19.109375 2.691406 19.972656 2.339844 L 20.25 3.019531 C 19.40625 3.363281 18.578125 3.742188 17.769531 4.15625 Z M 41.617188 2.25 C 40.753906 1.972656 39.875 1.730469 38.988281 1.527344 L 39.152344 0.808594 C 40.058594 1.015625 40.960938 1.265625 41.84375 1.550781 Z M 22.816406 2.105469 L 22.601562 1.402344 C 23.492188 1.132812 24.394531 0.898438 25.304688 0.703125 L 25.457031 1.421875 C 24.566406 1.609375 23.6875 1.839844 22.816406 2.105469 Z M 36.308594 1.03125 C 35.410156 0.90625 34.496094 0.820312 33.589844 0.773438 L 33.628906 0.0429688 C 34.554688 0.0898438 35.488281 0.175781 36.410156 0.304688 Z M 28.144531 0.96875 L 28.054688 0.242188 C 28.972656 0.128906 29.910156 0.0546875 30.835938 0.0195312 L 30.863281 0.753906 C 29.957031 0.785156 29.042969 0.859375 28.144531 0.96875 Z M 28.144531 0.96875 "/>
    </g>
</svg>
