<?xml version="1.0" encoding="UTF-8"?>
<svg xmlns="http://www.w3.org/2000/svg"
    xmlns:xlink="http://www.w3.org/1999/xlink" width="64px" height="64px" viewBox="0 0 64 64" version="1.1">
    <g id="surface1">
        <path style=" stroke:none;fill-rule:nonzero;fill:rgb(0%,32.941176%,41.960784%);fill-opacity:1;" d="M 58.933594 49.199219 C 55.464844 49.066406 52.800781 49.464844 50.535156 50.398438 C 49.867188 50.667969 48.800781 50.667969 48.800781 51.464844 C 49.199219 51.867188 49.199219 52.398438 49.464844 52.800781 C 50 53.734375 50.933594 54.800781 51.734375 55.464844 C 52.667969 56.132812 53.601562 56.800781 54.535156 57.464844 C 56.265625 58.535156 58.132812 59.066406 59.734375 60.132812 C 60.667969 60.800781 61.601562 61.464844 62.667969 62.132812 C 63.199219 62.535156 63.464844 63.066406 64 63.199219 L 64 63.066406 C 63.734375 62.667969 63.601562 62.132812 63.332031 61.734375 C 62.933594 61.332031 62.398438 60.933594 62 60.535156 C 60.800781 58.800781 59.199219 57.332031 57.464844 56.132812 C 56.132812 55.199219 53.066406 53.867188 52.398438 52.265625 C 52.398438 52.265625 52.398438 52.265625 52.265625 52.132812 C 53.199219 52 54.398438 51.734375 55.332031 51.464844 C 56.800781 51.066406 58.132812 51.199219 59.734375 50.800781 C 60.398438 50.667969 61.066406 50.398438 61.867188 50.132812 L 61.867188 49.734375 C 61.066406 48.933594 60.535156 47.867188 59.734375 47.199219 C 57.464844 45.332031 55.066406 43.464844 52.535156 41.867188 C 51.199219 40.933594 49.464844 40.398438 48 39.734375 C 47.464844 39.464844 46.667969 39.332031 46.265625 38.933594 C 45.464844 38 45.066406 36.667969 44.535156 35.601562 C 43.332031 33.199219 42 30.535156 40.933594 28 C 40.132812 26.265625 39.734375 24.667969 38.667969 23.066406 C 34.132812 15.734375 29.332031 11.199219 21.867188 6.800781 C 20.265625 5.867188 18.398438 5.464844 16.265625 5.066406 C 15.199219 5.066406 14.132812 4.933594 13.066406 4.933594 C 12.398438 4.667969 11.734375 3.867188 11.066406 3.464844 C 8.535156 1.867188 2.132812 -1.464844 0.398438 2.933594 C -0.800781 5.734375 2.132812 8.535156 3.199219 10 C 3.734375 10.933594 4.667969 12 5.199219 13.199219 C 5.464844 14 5.601562 14.667969 5.867188 15.464844 C 6.535156 17.332031 7.199219 19.464844 8.132812 21.332031 C 8.667969 22.265625 9.199219 23.199219 9.734375 24 C 10.132812 24.535156 10.667969 24.667969 10.800781 25.464844 C 10.132812 26.398438 10.132812 27.601562 9.734375 28.667969 C 8.132812 33.601562 8.800781 39.734375 10.933594 43.332031 C 11.601562 44.398438 13.332031 46.800781 15.464844 45.867188 C 17.464844 45.066406 16.933594 42.667969 17.601562 40.398438 C 17.734375 39.867188 17.601562 39.464844 17.867188 39.199219 L 17.867188 39.332031 C 18.535156 40.535156 19.066406 41.734375 19.601562 42.933594 C 20.933594 45.066406 23.332031 47.332031 25.199219 48.800781 C 26.265625 49.601562 27.066406 50.933594 28.398438 51.464844 L 28.398438 51.332031 L 28.265625 51.332031 C 28 50.933594 27.601562 50.800781 27.199219 50.398438 C 26.398438 49.601562 25.601562 48.667969 24.933594 47.734375 C 23.066406 45.332031 21.464844 42.667969 20 39.867188 C 19.332031 38.535156 18.667969 37.066406 18.132812 35.734375 C 17.867188 35.199219 17.867188 34.398438 17.464844 34.132812 C 16.800781 35.066406 15.867188 35.867188 15.332031 37.066406 C 14.535156 38.933594 14.398438 41.199219 14.132812 43.601562 C 14 43.601562 14 43.601562 14 43.734375 C 12.667969 43.332031 12.132812 42 11.601562 40.667969 C 10.265625 37.601562 10.132812 32.667969 11.199219 29.066406 C 12 28.265625 13.332031 25.332031 12.800781 24.398438 C 12.535156 23.601562 11.734375 23.066406 11.199219 22.398438 C 10.667969 21.601562 10 20.535156 9.601562 19.601562 C 8.535156 17.332031 8 14.535156 6.933594 12.132812 C 6.398438 11.066406 5.464844 9.867188 4.667969 8.800781 C 3.867188 7.601562 2.933594 6.800781 2.265625 5.464844 C 2.132812 4.933594 1.867188 4.132812 2.132812 3.601562 C 2.265625 3.199219 2.398438 3.066406 2.800781 3.066406 C 3.332031 2.535156 4.933594 3.199219 5.601562 3.464844 C 7.199219 4.132812 8.535156 4.667969 9.867188 5.601562 C 10.535156 6 11.066406 6.800781 11.867188 7.066406 L 12.800781 7.066406 C 14.132812 7.332031 15.734375 7.199219 17.066406 7.601562 C 19.332031 8.398438 21.464844 9.464844 23.332031 10.667969 C 29.066406 14.265625 33.734375 19.464844 36.933594 25.601562 C 37.464844 26.667969 37.734375 27.464844 38.132812 28.535156 C 39.066406 30.667969 40.132812 32.800781 41.066406 34.933594 C 42 36.933594 42.800781 39.066406 44.132812 40.800781 C 44.800781 41.734375 47.332031 42.132812 48.535156 42.667969 C 49.464844 43.066406 50.800781 43.464844 51.601562 43.867188 C 53.066406 44.800781 54.535156 45.867188 56 46.800781 C 56.667969 47.199219 58.800781 48.265625 58.933594 49.199219 Z M 58.933594 49.199219 "/>
        <path style=" stroke:none;fill-rule:nonzero;fill:rgb(0%,32.941176%,41.960784%);fill-opacity:1;" d="M 14.535156 11.332031 C 13.734375 11.332031 13.332031 11.464844 12.800781 11.601562 L 12.800781 11.734375 L 12.933594 11.734375 C 13.332031 12.398438 13.867188 12.933594 14.265625 13.464844 C 14.667969 14.132812 14.933594 14.800781 15.332031 15.601562 C 15.332031 15.601562 15.464844 15.464844 15.464844 15.464844 C 16.132812 15.066406 16.398438 14.398438 16.398438 13.332031 C 16 12.933594 16 12.667969 15.734375 12.398438 C 15.464844 11.867188 14.933594 11.734375 14.535156 11.332031 Z M 14.535156 11.332031 "/>
    </g>
</svg>
