<?xml version="1.0" encoding="UTF-8"?>
<svg xmlns="http://www.w3.org/2000/svg"
    xmlns:xlink="http://www.w3.org/1999/xlink" width="64px" height="64px" viewBox="0 0 64 64" version="1.1">
    <g id="surface1">
        <path style=" stroke:none;fill-rule:nonzero;fill:rgb(32.54902%,61.960784%,26.27451%);fill-opacity:1;" d="M 32 63.867188 C 31.066406 63.867188 30.265625 63.601562 29.601562 63.199219 L 21.734375 58.535156 C 20.535156 57.867188 21.199219 57.601562 21.464844 57.601562 C 23.066406 57.066406 23.332031 56.933594 24.933594 56 C 25.066406 55.867188 25.332031 56 25.464844 56 L 31.464844 59.601562 C 31.734375 59.734375 32 59.734375 32.132812 59.601562 L 55.601562 46 C 55.867188 45.867188 56 45.601562 56 45.332031 L 56 18.398438 C 56 18.132812 55.867188 17.867188 55.601562 17.734375 L 32.265625 4.265625 C 32 4.132812 31.734375 4.132812 31.601562 4.265625 L 8.132812 17.734375 C 7.867188 17.867188 7.734375 18.132812 7.734375 18.398438 L 7.734375 45.464844 C 7.734375 45.734375 7.867188 46 8.132812 46.132812 L 14.535156 49.867188 C 18 51.601562 20.132812 49.601562 20.132812 47.464844 L 20.132812 20.800781 C 20.132812 20.398438 20.398438 20.132812 20.800781 20.132812 L 23.734375 20.132812 C 24.132812 20.132812 24.398438 20.398438 24.398438 20.800781 L 24.398438 47.464844 C 24.398438 52.132812 21.867188 54.800781 17.464844 54.800781 C 16.132812 54.800781 15.066406 54.800781 12.132812 53.332031 L 6 49.867188 C 4.535156 48.933594 3.601562 47.332031 3.601562 45.601562 L 3.601562 18.398438 C 3.601562 16.667969 4.535156 14.933594 6 14.132812 L 29.601562 0.667969 C 31.066406 -0.132812 33.066406 -0.132812 34.535156 0.667969 L 58 14.265625 C 59.464844 15.199219 60.398438 16.800781 60.398438 18.535156 L 60.398438 45.601562 C 60.398438 47.332031 59.464844 49.066406 58 49.867188 L 34.398438 63.332031 C 33.734375 63.734375 32.800781 63.867188 32 63.867188 Z M 39.199219 45.332031 C 28.933594 45.332031 26.800781 40.667969 26.800781 36.667969 C 26.800781 36.265625 27.066406 36 27.464844 36 L 30.535156 36 C 30.933594 36 31.199219 36.265625 31.199219 36.535156 C 31.734375 39.601562 33.066406 41.199219 39.199219 41.199219 C 44.132812 41.199219 46.265625 40.132812 46.265625 37.464844 C 46.265625 36 45.734375 34.800781 38 34 C 31.601562 33.332031 27.601562 32 27.601562 26.800781 C 27.601562 22 31.601562 19.199219 38.265625 19.199219 C 45.734375 19.199219 49.464844 21.734375 50 27.464844 C 50 27.601562 50 27.867188 49.867188 28 C 49.734375 28.132812 49.601562 28.265625 49.332031 28.265625 L 46.265625 28.265625 C 46 28.265625 45.734375 28 45.601562 27.734375 C 44.933594 24.535156 43.066406 23.464844 38.265625 23.464844 C 32.933594 23.464844 32.265625 25.332031 32.265625 26.800781 C 32.265625 28.535156 33.066406 29.066406 40.265625 30 C 47.464844 30.933594 50.933594 32.265625 50.933594 37.332031 C 50.933594 42.398438 46.667969 45.332031 39.199219 45.332031 Z M 39.199219 45.332031 "/>
    </g>
</svg>
