<?xml version="1.0" standalone="no"?>
<!DOCTYPE svg PUBLIC "-//W3C//DTD SVG 20010904//EN"
 "http://www.w3.org/TR/2001/REC-SVG-20010904/DTD/svg10.dtd">
<svg version="1.0"
    xmlns="http://www.w3.org/2000/svg" width="64.000000pt" height="64.000000pt" viewBox="0 0 64.000000 64.000000" preserveAspectRatio="xMidYMid meet">

    <g transform="translate(0.000000,64.000000) scale(0.100000,-0.100000)" fill="#000000" stroke="none">
        <path d="M105 628 c-8 -26 -95 -400 -95 -409 0 -5 27 -9 60 -9 l60 0 0 -40 0
-40 46 0 47 0 -6 -37 c-3 -21 -9 -47 -12 -59 -6 -21 -3 -21 156 -28 89 -4 165
-4 169 1 9 9 50 185 50 212 0 9 -13 27 -29 39 -28 20 -29 24 -36 137 -7 111
-8 115 -30 115 -21 0 -24 6 -30 65 l-7 65 -169 0 c-127 0 -171 -3 -174 -12z
m159 -168 c20 -7 26 -17 26 -38 0 -15 -5 -33 -11 -39 -8 -8 -8 -17 0 -31 14
-27 14 -32 -3 -32 -7 0 -21 11 -30 25 -20 31 -34 32 -38 3 -2 -13 -10 -23 -18
-23 -11 0 -16 15 -18 59 -2 32 -1 65 2 72 6 16 53 18 90 4z m106 -5 c0 -8 6
-15 14 -15 8 0 16 7 20 15 9 23 23 18 31 -12 4 -17 2 -29 -4 -31 -15 -5 -14
-29 2 -36 9 -3 7 -9 -5 -19 -10 -8 -18 -19 -18 -26 0 -6 -7 -11 -16 -11 -10 0
-14 6 -10 15 3 9 0 15 -10 15 -8 0 -17 -7 -20 -15 -9 -22 -17 -18 -31 11 -9
20 -9 26 3 31 17 6 18 29 2 37 -10 3 -8 9 5 19 9 8 17 19 17 26 0 6 5 11 10
11 6 0 10 -7 10 -15z m-60 -270 c0 -12 -14 -15 -70 -15 -64 0 -81 6 -63 23 3
4 35 7 70 7 49 0 63 -3 63 -15z"/>
        <path d="M210 421 c0 -16 6 -21 26 -21 33 0 30 33 -4 38 -17 3 -22 -2 -22 -17z"/>
        <path d="M367 403 c-12 -11 -8 -23 7 -23 8 0 16 7 20 15 5 15 -14 21 -27 8z"/>
    </g>
</svg>
