<?xml version="1.0" encoding="UTF-8"?>
<svg xmlns="http://www.w3.org/2000/svg"
    xmlns:xlink="http://www.w3.org/1999/xlink" width="64px" height="64px" viewBox="0 0 64 64" version="1.1">
    <g id="surface1">
        <rect x="0" y="0" width="64" height="64" style="fill:rgb(9.803922%,46.27451%,82.352941%);fill-opacity:1;stroke:none;"/>
        <path style=" stroke:none;fill-rule:nonzero;fill:rgb(100%,100%,100%);fill-opacity:1;" d="M 38.265625 28.398438 L 14.667969 28.398438 L 14.667969 34.265625 L 23.066406 34.265625 L 23.066406 60.398438 L 29.734375 60.398438 L 29.734375 34.265625 L 38.265625 34.265625 Z M 38.265625 28.398438 "/>
        <path style=" stroke:none;fill-rule:nonzero;fill:rgb(100%,100%,100%);fill-opacity:1;" d="M 59.066406 35.734375 C 59.066406 35.734375 55.867188 33.601562 52.265625 33.601562 C 48.667969 33.601562 47.332031 35.332031 47.332031 37.066406 C 47.332031 41.734375 60.398438 41.332031 60.398438 50.800781 C 60.398438 65.332031 40.398438 58.933594 40.398438 58.933594 L 40.398438 52 C 40.398438 52 44.265625 54.933594 48.800781 54.933594 C 53.332031 54.933594 53.199219 51.867188 53.199219 51.464844 C 53.199219 47.066406 40.132812 47.066406 40.132812 37.464844 C 40.132812 24.398438 59.066406 29.464844 59.066406 29.464844 Z M 59.066406 35.734375 "/>
    </g>
</svg>
