<?xml version="1.0" encoding="UTF-8"?>
<svg xmlns="http://www.w3.org/2000/svg"
    xmlns:xlink="http://www.w3.org/1999/xlink" width="64px" height="64px" viewBox="0 0 64 64" version="1.1">
    <g id="surface1">
        <path style=" stroke:none;fill-rule:nonzero;fill:rgb(0%,60.392157%,48.627451%);fill-opacity:1;" d="M 40.75 6.582031 C 41.261719 6.113281 42 5.996094 42.636719 6.273438 C 43.269531 6.554688 43.675781 7.183594 43.675781 7.875 L 43.675781 20.5 L 26.957031 33.746094 L 18.34375 27.214844 Z M 40.75 6.582031 "/>
        <path style=" stroke:none;fill-rule:nonzero;fill:rgb(0%,60.392157%,48.627451%);fill-opacity:1;" d="M 12.027344 33.339844 L 4.761719 39.601562 C 3.804688 40.464844 3.734375 41.941406 4.601562 42.894531 C 4.648438 42.949219 4.699219 43 4.753906 43.046875 L 7.835938 45.847656 C 8.667969 46.601562 9.917969 46.660156 10.8125 45.980469 L 19.199219 39.871094 Z M 12.027344 33.339844 "/>
        <path style=" stroke:none;fill-rule:nonzero;fill:rgb(0%,69.803922%,58.039216%);fill-opacity:1;" d="M 43.675781 43.496094 L 10.824219 18.015625 C 9.929688 17.335938 8.675781 17.390625 7.847656 18.144531 L 4.765625 20.945312 C 3.8125 21.8125 3.742188 23.289062 4.609375 24.238281 C 4.660156 24.292969 4.710938 24.347656 4.765625 24.394531 L 40.742188 57.394531 C 41.253906 57.863281 41.996094 57.984375 42.628906 57.707031 C 43.265625 57.425781 43.675781 56.796875 43.675781 56.105469 Z M 43.675781 43.496094 "/>
        <path style=" stroke:none;fill-rule:nonzero;fill:rgb(14.117647%,74.901961%,64.705882%);fill-opacity:1;" d="M 46.488281 59.492188 C 45.152344 60.136719 43.558594 59.863281 42.511719 58.816406 C 43.097656 59.398438 43.976562 59.570312 44.738281 59.253906 C 45.5 58.933594 45.996094 58.191406 46 57.367188 L 46 6.632812 C 46 5.804688 45.5 5.058594 44.734375 4.738281 C 43.96875 4.421875 43.089844 4.597656 42.503906 5.183594 C 43.550781 4.136719 45.144531 3.863281 46.480469 4.507812 L 58.011719 10.050781 C 59.222656 10.628906 60 11.855469 60 13.199219 L 60 50.800781 C 60 52.144531 59.230469 53.371094 58.019531 53.953125 Z M 46.488281 59.492188 "/>
    </g>
</svg>
